<?xml version="1.0" encoding="iso-8859-1"?>
<!-- Generator: Adobe Illustrator 19.0.0, SVG Export Plug-In . SVG Version: 6.00 Build 0)  -->
<svg version="1.1" id="Capa_1" xmlns="http://www.w3.org/2000/svg" xmlns:xlink="http://www.w3.org/1999/xlink" x="0px" y="0px"
	 viewBox="0 0 512 512" style="enable-background:new 0 0 512 512;" xml:space="preserve">
<g>
	<g>
		<path d="M501.999,160h-8.17C505.071,148.315,512,132.458,512,115c0-35.841-29.161-65-65.005-65
			c-6.351,0-12.488,0.927-18.294,2.634c0,0,20.037-37.776,20.128-37.948C452.313,8.119,447.405,0,439.995,0H94.828
			c-3.701,0-7.101,2.045-8.835,5.314c0,0-84.571,159.447-84.864,159.999C-2.205,171.6,2.44,180,9.964,180h61.004v128.132
			c0,0-69.986,189.322-70.383,190.397C-1.756,504.862,3.245,512,9.964,512h379.027c5.523,0,10.001-4.478,10.001-10V320h20.001v30
			c0,5.522,4.477,10,10.001,10h7v92h-7c-5.523,0-10.001,4.478-10.001,10v40c0,5.522,4.477,10,10.001,10h73.005
			c5.523,0,10.001-4.478,10.001-10v-40c0-5.522-4.477-10-10.001-10h-6v-92h6c5.523,0,10.001-4.478,10.001-10V170
			C512,164.478,507.523,160,501.999,160z M446.995,70c24.815,0,45.003,20.187,45.003,45s-20.188,45-45.003,45
			s-45.003-20.187-45.003-45S422.18,70,446.995,70z M391.546,80h-40.558V60h51.166L391.546,80z M400.148,160h-28.394l13.349-25.167
			C388.164,144.365,393.369,152.943,400.148,160z M79.882,60h31.09v20H69.02L79.882,60z M26.588,160l10.608-20h127.369
			c5.52,0,10.001-4.49,10.001-10s-4.48-10-10.001-10H47.804l10.608-20h62.56c5.523,0,10.001-4.478,10.001-10V50
			c0-5.522-4.477-10-10.001-10H90.236l10.608-20H423.37l-10.608,20h-71.775c-5.523,0-10.001,4.478-10.001,10v40
			c0,5.522,4.477,10,10.001,10h39.951l-10.608,20H244.57c-5.51,0-10.001,4.49-10.001,10s4.491,10,10.001,10h115.152l-10.608,20
			H26.588z M150.974,180v120h-20.001V180H150.974z M110.971,180v120H90.97V180H110.971z M168.975,492h-60.004V382h60.004V492z
			 M328.987,492H238.98v-64h60.004c5.523,0,10.001-4.478,10.001-10c0-5.522-4.477-10-10.001-10H238.98v-26h90.006v66h-60.003
			c-5.523,0-10.001,4.478-10.001,10c0,5.522,4.477,10,10.001,10h60.004V492z M378.99,492h-30.002V382
			c5.523,0,10.001-4.478,10.001-10c0-5.522-4.477-10-10.001-10H218.979c-5.523,0-10.001,4.478-10.001,10c0,5.522,4.477,10,10.001,10
			v110h-30.002V372c0-5.522-4.477-10-10.001-10H98.97c-5.523,0-10.001,4.478-10.001,10v120H24.323l63.582-172H378.99V492z
			 M491.999,492h-53.004v-20h53.004V492z M455.996,452v-92h20.001v92H455.996z M491.999,340h-53.004v-20h53.004V340z M491.998,260
			H220.979v-40h271.019V260z M491.999,200h-281.02c-5.523,0-10.001,4.478-10.001,10v60c0,5.522,4.477,10,10.001,10h281.02v20
			H170.976V180h321.023V200z"/>
	</g>
</g>
<g>
	<g>
		<path d="M204.568,120c-5.51,0-10.001,4.49-10.001,10s4.491,10,10.001,10c5.52,0,10.001-4.49,10.001-10S210.088,120,204.568,120z"
			/>
	</g>
</g>
<g>
	<g>
		<path d="M210.978,40h-50.004c-5.523,0-10.001,4.478-10.001,10v40c0,5.522,4.477,10,10.001,10h50.004
			c5.524,0,10.001-4.478,10.001-10V50C220.979,44.478,216.502,40,210.978,40z M200.978,80h-30.002V60h30.002V80z"/>
	</g>
</g>
<g>
	<g>
		<path d="M300.985,40h-50.004c-5.523,0-10.001,4.478-10.001,10v40c0.001,5.522,4.478,10,10.001,10h50.004
			c5.523,0,10.001-4.478,10.001-10V50C310.986,44.478,306.509,40,300.985,40z M290.984,80h-30.002V60h30.002V80z"/>
	</g>
</g>
<g>
	<g>
		<circle cx="138.97" cy="437" r="10"/>
	</g>
</g>
<g>
</g>
<g>
</g>
<g>
</g>
<g>
</g>
<g>
</g>
<g>
</g>
<g>
</g>
<g>
</g>
<g>
</g>
<g>
</g>
<g>
</g>
<g>
</g>
<g>
</g>
<g>
</g>
<g>
</g>
</svg>
