<?xml version="1.0" encoding="iso-8859-1"?>
<!-- Generator: Adobe Illustrator 19.0.0, SVG Export Plug-In . SVG Version: 6.00 Build 0)  -->
<svg version="1.1" id="Layer_1" xmlns="http://www.w3.org/2000/svg" xmlns:xlink="http://www.w3.org/1999/xlink" x="0px" y="0px"
	 viewBox="0 0 512 512" style="enable-background:new 0 0 512 512;" xml:space="preserve">
<g>
	<g>
		<g>
			<path d="M316.854,47.417c3.863-2.238,5.182-7.183,2.944-11.047c-1.207-2.084-1.818-4.347-1.818-6.727
				c0-7.43,6.044-13.474,13.474-13.474h150.905c7.43,0,13.474,6.044,13.474,13.474c0,7.43-6.044,13.474-13.474,13.474h-64.674
				c-4.466,0-8.084,3.619-8.084,8.084s3.619,8.084,8.084,8.084h64.674c16.344,0,29.642-13.298,29.642-29.642
				C512,13.298,498.702,0,482.358,0H331.453c-16.344,0-29.642,13.298-29.642,29.642c0,5.188,1.382,10.315,3.996,14.831
				C308.044,48.337,312.988,49.654,316.854,47.417z"/>
			<path d="M277.558,91.621h86.232c16.344,0,29.642-13.298,29.642-29.642c0-5.188-1.382-10.315-3.997-14.831
				c-2.238-3.863-7.182-5.182-11.047-2.944c-3.863,2.238-5.181,7.183-2.944,11.047c1.208,2.084,1.82,4.347,1.82,6.727
				c0,7.43-6.044,13.474-13.474,13.474h-86.232c-7.43,0-13.474-6.044-13.474-13.474s6.044-13.474,13.474-13.474h10.779
				c4.466,0,8.084-3.618,8.084-8.084c0-4.466-3.619-8.084-8.084-8.084h-10.779c-16.344,0-29.642,13.298-29.642,29.642
				S261.214,91.621,277.558,91.621z"/>
			<path d="M512,256c0-16.344-13.298-29.642-29.642-29.642S452.716,239.656,452.716,256c0,13.544,9.13,24.995,21.558,28.522v211.309
				h-37.726V336.843c0-7.43-6.044-13.474-13.474-13.474h-40.421V188.633h18.863c7.43,0,13.474-6.044,13.474-13.474v-21.558
				c0-7.43-6.044-13.474-13.474-13.474H160.02c0.015-1.555-0.064-3.117-0.237-4.683l-4.088-36.796
				c-2.151-19.369-18.47-33.974-37.958-33.974c-6.136,0-11.957,1.448-17.121,4.037l-3.998-39.98C94.98,12.352,81.331,0,64.87,0
				S34.76,12.352,33.123,28.73L21.985,140.126h-8.511C6.044,140.126,0,146.17,0,153.6v21.558c0,7.43,6.044,13.474,13.474,13.474
				h18.863v137.432c0,7.43,6.044,13.474,13.474,13.474h83.537v28.198c-4.369-0.821-8.87-1.25-13.474-1.25H72.758
				C32.639,366.484,0,399.123,0,439.242c0,22.832,10.571,43.24,27.075,56.589H8.084c-4.466,0-8.084,3.619-8.084,8.084
				C0,508.382,3.619,512,8.084,512h355.705c4.466,0,8.084-3.618,8.084-8.084c0-4.466-3.618-8.084-8.084-8.084H307.2v-102.4h14.193
				c4.466,0,8.084-3.618,8.084-8.084c0-4.466-3.619-8.084-8.084-8.084H307.2v-35.032c0-0.945-0.163-1.852-0.46-2.695h113.639v37.726
				h-69.883c-4.466,0-8.084,3.618-8.084,8.084c0,4.466,3.619,8.084,8.084,8.084h69.883v102.4h-23.714
				c-4.466,0-8.084,3.619-8.084,8.084c0,4.466,3.618,8.084,8.084,8.084h107.25c4.466,0,8.084-3.618,8.084-8.084
				c0-4.466-3.618-8.084-8.084-8.084h-13.474V284.522C502.87,280.994,512,269.543,512,256z M91.759,137.229l4.088-36.796
				c1.242-11.169,10.652-19.591,21.889-19.591c11.237,0,20.647,8.422,21.888,19.591l4.088,36.796
				c0.108,0.97,0.153,1.937,0.135,2.897H91.624C91.606,139.166,91.651,138.199,91.759,137.229z M49.212,30.338
				c0.807-8.079,7.539-14.17,15.657-14.17s14.85,6.092,15.659,14.17l5.171,51.71c-3.154,4.853-5.242,10.488-5.921,16.599
				l-4.089,36.796c-0.174,1.566-0.253,3.129-0.237,4.683h-37.22L49.212,30.338z M97.011,323.368H48.505V188.632h48.505V323.368z
				 M105.114,495.832H72.758c-31.203,0-56.589-25.387-56.589-56.589c0-31.203,25.387-56.589,56.589-56.589h43.116
				c28.46,0,52.08,21.118,56.014,48.505h-34.456c-22.289,0-40.421,18.132-40.421,40.421
				C97.011,480.671,100.029,489.072,105.114,495.832z M180.547,495.832h-43.116c-13.372,0-24.253-10.88-24.253-24.253
				s10.88-24.253,24.253-24.253h43.116c13.372,0,24.253,10.88,24.253,24.253S193.92,495.832,180.547,495.832z M291.032,342.232
				v153.6h-78.167c5.086-6.759,8.104-15.161,8.104-24.253c0-19.65-14.094-36.071-32.706-39.683
				c-2.657-26.401-19.489-48.681-42.747-59.098v-33.262h145.976C291.193,340.38,291.032,341.286,291.032,342.232z M366.484,323.368
				H113.179V188.632h15.091c4.466,0,8.084-3.618,8.084-8.084c0-4.466-3.619-8.084-8.084-8.084H16.168v-16.168h382.653v16.168
				H157.373c-4.466,0-8.084,3.619-8.084,8.084c0,4.466,3.618,8.084,8.084,8.084h209.112V323.368z M482.358,269.474
				c-7.43,0-13.474-6.044-13.474-13.474c0-7.43,6.044-13.474,13.474-13.474s13.474,6.044,13.474,13.474
				C495.832,263.43,489.788,269.474,482.358,269.474z"/>
			<path d="M272.168,307.2h21.558c7.43,0,13.474-6.044,13.474-13.474v-75.453c0-7.43-6.044-13.474-13.474-13.474h-21.558
				c-7.43,0-13.474,6.044-13.474,13.474v75.453C258.695,301.156,264.738,307.2,272.168,307.2z M274.863,220.968h16.168v70.063
				h-16.168V220.968z"/>
			<path d="M175.158,307.2h21.558c7.43,0,13.474-6.044,13.474-13.474v-75.453c0-7.43-6.044-13.474-13.474-13.474h-21.558
				c-7.43,0-13.474,6.044-13.474,13.474v75.453C161.684,301.156,167.728,307.2,175.158,307.2z M177.853,220.968h16.168v70.063
				h-16.168V220.968z"/>
		</g>
	</g>
</g>
<g>
</g>
<g>
</g>
<g>
</g>
<g>
</g>
<g>
</g>
<g>
</g>
<g>
</g>
<g>
</g>
<g>
</g>
<g>
</g>
<g>
</g>
<g>
</g>
<g>
</g>
<g>
</g>
<g>
</g>
</svg>
